
<svg version="1.1" xmlns="http://www.w3.org/2000/svg" xmlns:xlink="http://www.w3.org/1999/xlink" width="85.14044" height="78.93122" viewBox="0,0,85.14044,78.93122"><g transform="translate(-197.42978,-140.89226)"><g data-paper-data="{&quot;isPaintingLayer&quot;:true}" fill-rule="nonzero" stroke-linejoin="miter" stroke-miterlimit="10" stroke-dasharray="" stroke-dashoffset="0" style="mix-blend-mode: normal"><path d="M272.50618,180.35623c-5.87233,8.98996 -18.19663,15.1804 -32.4496,15.1804c-14.34517,0 -26.73663,-6.27077 -32.56275,-15.3552v-0.36283c5.82612,-9.08443 18.21758,-15.3552 32.56275,-15.3552c14.25297,0 26.57727,6.19044 32.4496,15.1804z" data-paper-data="{&quot;index&quot;:null}" fill="#fdffff" stroke="#000000" stroke-width="1" stroke-linecap="butt"/><path d="M225.20001,180.00002c0,-8.17381 6.62619,-14.8 14.8,-14.8c8.17381,0 14.8,6.62619 14.8,14.8c0,8.17381 -6.62619,14.8 -14.8,14.8c-8.17381,0 -14.8,-6.62619 -14.8,-14.8z" fill="#005abb" stroke="#000000" stroke-width="0" stroke-linecap="butt"/><path d="M231.95001,180.00001c0,-4.44589 3.60411,-8.05 8.05,-8.05c4.44589,0 8.05,3.60411 8.05,8.05c0,4.44589 -3.60411,8.05 -8.05,8.05c-4.44589,0 -8.05,-3.60411 -8.05,-8.05z" fill="#000000" stroke="#000000" stroke-width="0" stroke-linecap="butt"/><path d="M200.80094,159.19531c0,0.4671 -0.17229,0.85763 -0.51687,1.17158c-0.34076,0.31395 -0.73511,0.47093 -1.18307,0.47093c-0.50156,0 -0.90548,-0.15698 -1.21178,-0.47093c-0.3063,-0.31395 -0.45944,-0.70448 -0.45944,-1.17158v-15.58086c0,-0.4671 0.16081,-0.85763 0.48242,-1.17158c0.32544,-0.31395 0.73894,-0.47093 1.2405,-0.47093c0.43264,0 0.81551,0.15698 1.14861,0.47093c0.3331,0.31395 0.49964,0.70448 0.49964,1.17158zM211.98592,140.89226c0.39435,0 0.77914,0.05552 1.15435,0.16655c0.37904,0.1072 0.69299,0.28141 0.94186,0.52262c0.25269,0.24121 0.37904,0.55899 0.37904,0.95334c0,0.45178 -0.13017,0.80785 -0.39053,1.0682c-0.26035,0.26035 -0.5609,0.39053 -0.90166,0.39053c-0.16081,0 -0.40393,-0.0402 -0.72937,-0.1206c-0.32161,-0.0804 -0.63556,-0.1206 -0.94186,-0.1206c-0.44796,0 -0.79445,0.09955 -1.03949,0.29864c-0.24121,0.19526 -0.40776,0.42307 -0.49964,0.68342c-0.08806,0.26035 -0.13209,0.49007 -0.13209,0.68916v13.7718c0,0.4671 -0.15315,0.85763 -0.45944,1.17158c-0.30247,0.31395 -0.68725,0.47093 -1.15435,0.47093c-0.4671,0 -0.8538,-0.15698 -1.16009,-0.47093c-0.3063,-0.31395 -0.45944,-0.70448 -0.45944,-1.17158v-13.74883c0,-1.27495 0.44796,-2.35273 1.34387,-3.23333c0.89974,-0.8806 2.24936,-1.3209 4.04884,-1.3209zM212.27881,146.68698c0.43264,0 0.79254,0.13975 1.07969,0.41924c0.28715,0.27949 0.43073,0.63365 0.43073,1.06246c0,0.43264 -0.14358,0.78871 -0.43073,1.0682c-0.28715,0.27567 -0.64705,0.4135 -1.07969,0.4135h-7.13859c-0.43264,0 -0.79254,-0.13783 -1.07969,-0.4135c-0.28715,-0.27949 -0.43073,-0.63556 -0.43073,-1.0682c0,-0.42881 0.14358,-0.78297 0.43073,-1.06246c0.28715,-0.27949 0.64705,-0.41924 1.07969,-0.41924zM217.96923,160.83782c-0.4671,0 -0.8538,-0.15698 -1.16009,-0.47093c-0.3063,-0.31395 -0.45944,-0.70448 -0.45944,-1.17158v-11.13001c0,-0.4671 0.15315,-0.85763 0.45944,-1.17158c0.3063,-0.31778 0.69299,-0.47667 1.16009,-0.47667c0.4671,0 0.85188,0.15889 1.15435,0.47667c0.3063,0.31395 0.45944,0.70448 0.45944,1.17158v2.53268l-0.18952,-1.80906c0.19909,-0.42881 0.45561,-0.80977 0.76957,-1.14286c0.31395,-0.3331 0.66811,-0.61068 1.06246,-0.83274c0.39818,-0.22589 0.82125,-0.39244 1.26921,-0.49964c0.44796,-0.11103 0.89783,-0.16655 1.34961,-0.16655c0.53602,0 0.9878,0.15315 1.35536,0.45944c0.37138,0.3063 0.55707,0.66619 0.55707,1.07969c0,0.59345 -0.15315,1.02035 -0.45944,1.2807c-0.3063,0.26035 -0.63939,0.39053 -0.99929,0.39053c-0.34075,0 -0.65088,-0.06317 -0.93037,-0.18952c-0.27567,-0.12635 -0.59345,-0.18952 -0.95334,-0.18952c-0.32544,0 -0.65471,0.07657 -0.9878,0.22972c-0.32927,0.15315 -0.63365,0.39244 -0.91314,0.71788c-0.27949,0.32161 -0.50539,0.72171 -0.67768,1.20029c-0.16846,0.47476 -0.25269,1.03375 -0.25269,1.67697v6.392c0,0.4671 -0.15315,0.85763 -0.45944,1.17158c-0.30247,0.31395 -0.68725,0.47093 -1.15435,0.47093zM239.53111,146.14713c0.4671,0 0.85188,0.15315 1.15435,0.45944c0.3063,0.3063 0.45944,0.70257 0.45944,1.18881v11.39993c0,0.4671 -0.15315,0.85763 -0.45944,1.17158c-0.30247,0.31395 -0.68725,0.47093 -1.15435,0.47093c-0.4671,0 -0.8538,-0.15698 -1.16009,-0.47093c-0.3063,-0.31395 -0.45944,-0.70448 -0.45944,-1.17158v-1.3209l0.59153,0.24121c0,0.23355 -0.12635,0.51687 -0.37904,0.84997c-0.24887,0.3331 -0.58962,0.66236 -1.02226,0.9878c-0.42881,0.32161 -0.93611,0.59536 -1.5219,0.82125c-0.58196,0.22206 -1.21561,0.3331 -1.90095,0.3331c-1.2405,0 -2.36422,-0.31778 -3.37116,-0.95334c-1.00312,-0.63939 -1.79757,-1.51999 -2.38336,-2.6418c-0.58196,-1.12564 -0.87294,-2.4159 -0.87294,-3.87081c0,-1.47405 0.29098,-2.77197 0.87294,-3.89378c0.58579,-1.12181 1.37259,-2.0024 2.36039,-2.6418c0.9878,-0.63939 2.08281,-0.95909 3.28502,-0.95909c0.7734,0 1.48362,0.11678 2.13067,0.35033c0.64705,0.23355 1.20795,0.53027 1.68271,0.89017c0.47859,0.3599 0.84805,0.72362 1.10841,1.09118c0.26035,0.36755 0.39053,0.67768 0.39053,0.93037l-0.97057,0.35033v-1.96412c0,-0.4671 0.15315,-0.85763 0.45944,-1.17158c0.3063,-0.31778 0.69299,-0.47667 1.16009,-0.47667zM234.08672,158.14434c0.78871,0 1.47979,-0.19718 2.07324,-0.59153c0.59345,-0.39818 1.0548,-0.93803 1.38407,-1.61954c0.3331,-0.68151 0.49964,-1.44533 0.49964,-2.29147c0,-0.86146 -0.16655,-1.63294 -0.49964,-2.31444c-0.32927,-0.68534 -0.79062,-1.22518 -1.38407,-1.61954c-0.59345,-0.39435 -1.28453,-0.59153 -2.07324,-0.59153c-0.7734,0 -1.45682,0.19718 -2.05026,0.59153c-0.59345,0.39435 -1.05672,0.9342 -1.38981,1.61954c-0.3331,0.68151 -0.49964,1.45299 -0.49964,2.31444c0,0.84614 0.16655,1.60997 0.49964,2.29147c0.3331,0.68151 0.79637,1.22135 1.38981,1.61954c0.59345,0.39435 1.27687,0.59153 2.05026,0.59153zM252.22437,146.14713c1.43576,0 2.49439,0.3465 3.1759,1.03949c0.68534,0.69299 1.13521,1.58699 1.34961,2.682l-0.45944,-0.24121l0.21824,-0.43073c0.21441,-0.4135 0.54559,-0.85763 0.99355,-1.33238c0.45178,-0.47859 0.99546,-0.88443 1.63102,-1.21752c0.63939,-0.3331 1.35536,-0.49964 2.1479,-0.49964c1.2941,0 2.27616,0.27949 2.94618,0.83848c0.67385,0.55516 1.13712,1.29601 1.38981,2.22256c0.25269,0.92654 0.37904,1.95455 0.37904,3.08401v6.90313c0,0.4671 -0.15315,0.85763 -0.45944,1.17158c-0.3063,0.31395 -0.69299,0.47093 -1.16009,0.47093c-0.4671,0 -0.8538,-0.15698 -1.16009,-0.47093c-0.30247,-0.31395 -0.4537,-0.70448 -0.4537,-1.17158v-6.90313c0,-0.59345 -0.07274,-1.12755 -0.21824,-1.60231c-0.14166,-0.47476 -0.40201,-0.85571 -0.78105,-1.14286c-0.37521,-0.28715 -0.91314,-0.43073 -1.61379,-0.43073c-0.68534,0 -1.27113,0.14358 -1.75737,0.43073c-0.48242,0.28715 -0.84614,0.66811 -1.09118,1.14286c-0.24121,0.47476 -0.36181,1.00886 -0.36181,1.60231v6.90313c0,0.4671 -0.15315,0.85763 -0.45944,1.17158c-0.3063,0.31395 -0.69299,0.47093 -1.16009,0.47093c-0.4671,0 -0.8538,-0.15698 -1.16009,-0.47093c-0.30247,-0.31395 -0.4537,-0.70448 -0.4537,-1.17158v-6.90313c0,-0.59345 -0.07274,-1.12755 -0.21824,-1.60231c-0.14166,-0.47476 -0.40201,-0.85571 -0.78105,-1.14286c-0.37521,-0.28715 -0.91314,-0.43073 -1.61379,-0.43073c-0.68534,0 -1.27113,0.14358 -1.75737,0.43073c-0.48242,0.28715 -0.84614,0.66811 -1.09118,1.14286c-0.24121,0.47476 -0.36181,1.00886 -0.36181,1.60231v6.90313c0,0.4671 -0.15315,0.85763 -0.45944,1.17158c-0.30247,0.31395 -0.68725,0.47093 -1.15435,0.47093c-0.4671,0 -0.8538,-0.15698 -1.16009,-0.47093c-0.3063,-0.31395 -0.45944,-0.70448 -0.45944,-1.17158v-11.13001c0,-0.4671 0.15315,-0.85763 0.45944,-1.17158c0.3063,-0.31778 0.69299,-0.47667 1.16009,-0.47667c0.4671,0 0.85188,0.15889 1.15435,0.47667c0.3063,0.31395 0.45944,0.70448 0.45944,1.17158v1.15435l-0.40201,-0.0804c0.16081,-0.3063 0.38478,-0.63365 0.67194,-0.98206c0.28715,-0.35224 0.63748,-0.67959 1.05098,-0.98206c0.4135,-0.3063 0.87103,-0.55325 1.37259,-0.74085c0.50539,-0.19144 1.0548,-0.28715 1.64825,-0.28715zM276.29309,161.10774c-1.52765,0 -2.85429,-0.31778 -3.97992,-0.95334c-1.12181,-0.63939 -1.98326,-1.50659 -2.58437,-2.6016c-0.6011,-1.09883 -0.90166,-2.33933 -0.90166,-3.72149c0,-1.61954 0.32735,-2.99978 0.98206,-4.14073c0.65471,-1.14095 1.51233,-2.01581 2.57288,-2.62457c1.06055,-0.61259 2.18427,-0.91889 3.37116,-0.91889c0.91506,0 1.78034,0.18952 2.59585,0.56856c0.81934,0.37521 1.54296,0.89209 2.17087,1.55062c0.63173,0.65471 1.13138,1.4147 1.49893,2.27999c0.36755,0.86146 0.55133,1.77651 0.55133,2.74517c-0.01914,0.43264 -0.18952,0.78297 -0.51113,1.05098c-0.32161,0.26801 -0.69874,0.40201 -1.13138,0.40201h-10.29726l-0.80977,-2.69348h9.89525l-0.59728,0.53985v-0.72937c-0.03446,-0.5207 -0.21824,-0.9878 -0.55133,-1.4013c-0.3331,-0.4135 -0.74659,-0.74085 -1.2405,-0.98206c-0.4939,-0.24121 -1.01843,-0.36181 -1.57359,-0.36181c-0.53985,0 -1.04332,0.07274 -1.51042,0.21824c-0.4671,0.14166 -0.87103,0.38287 -1.21178,0.72362c-0.34075,0.34075 -0.61068,0.79828 -0.80977,1.37259c-0.19909,0.5743 -0.29864,1.30175 -0.29864,2.18235c0,0.97249 0.20292,1.79566 0.60876,2.46951c0.40584,0.67385 0.92654,1.18689 1.56211,1.53913c0.63939,0.34841 1.31898,0.52262 2.03878,0.52262c0.66236,0 1.19072,-0.0536 1.58508,-0.16081c0.39818,-0.11103 0.71788,-0.24121 0.95909,-0.39053c0.24121,-0.15315 0.46136,-0.28524 0.66045,-0.39627c0.32161,-0.16081 0.62791,-0.24121 0.91889,-0.24121c0.39435,0 0.72171,0.13592 0.98206,0.40776c0.26035,0.26801 0.39053,0.58196 0.39053,0.94186c0,0.48624 -0.25269,0.92654 -0.75808,1.3209c-0.4671,0.39435 -1.12372,0.74085 -1.96986,1.03949c-0.84231,0.29481 -1.71142,0.44221 -2.60734,0.44221z" fill="#000000" stroke="none" stroke-width="1" stroke-linecap="square"/><path d="M215.57399,198.68275c0.49356,0 0.92384,0.16241 1.29084,0.48723c0.367,0.32482 0.55051,0.73612 0.55051,1.23389c0,0.25732 -0.05906,0.52309 -0.17717,0.79729l-7.33376,17.16694c-0.18139,0.39653 -0.4345,0.68972 -0.75932,0.87954c-0.32482,0.18561 -0.65597,0.27842 -0.99344,0.27842c-0.31638,-0.02109 -0.62433,-0.12444 -0.92384,-0.31006c-0.29529,-0.18983 -0.52309,-0.46192 -0.68339,-0.81627l-7.33377,-17.22389c-0.05906,-0.11812 -0.09913,-0.24045 -0.12023,-0.367c-0.01687,-0.13077 -0.02531,-0.25732 -0.02531,-0.37966c0,-0.57371 0.2067,-1.01243 0.62011,-1.31615c0.41763,-0.30795 0.81416,-0.46192 1.1896,-0.46192c0.75088,0 1.29506,0.38599 1.63254,1.15796l6.50484,15.29396l-1.03774,0.02531l5.96698,-15.31927c0.33748,-0.75088 0.88165,-1.12632 1.63254,-1.12632zM223.59018,217.71635c0,0.51465 -0.16874,0.94493 -0.50621,1.29084c-0.33326,0.34591 -0.75721,0.51887 -1.27186,0.51887c-0.51465,0 -0.94071,-0.17296 -1.27819,-0.51887c-0.33748,-0.34591 -0.50621,-0.77619 -0.50621,-1.29084v-12.26301c0,-0.51465 0.16874,-0.94493 0.50621,-1.29084c0.33748,-0.35013 0.76354,-0.5252 1.27819,-0.5252c0.51465,0 0.9386,0.17506 1.27186,0.5252c0.33748,0.34591 0.50621,0.77619 0.50621,1.29084zM221.78047,201.70737c-0.67495,0 -1.15163,-0.10757 -1.43005,-0.32271c-0.2742,-0.21936 -0.4113,-0.60535 -0.4113,-1.15796v-0.56949c0,-0.57371 0.15186,-0.96391 0.45559,-1.17062c0.30795,-0.2067 0.7783,-0.31006 1.41107,-0.31006c0.69604,0 1.18116,0.10968 1.45536,0.32904c0.27842,0.21514 0.41763,0.59902 0.41763,1.15163v0.56949c0,0.57371 -0.14975,0.96391 -0.44926,1.17062c-0.29529,0.2067 -0.7783,0.31006 -1.44903,0.31006zM226.32719,217.05828c-0.19827,-0.2742 -0.28896,-0.62855 -0.27209,-1.06305c0.02109,-0.43872 0.27842,-0.81627 0.77197,-1.13265c0.31638,-0.19827 0.65175,-0.28263 1.0061,-0.25311c0.35857,0.02953 0.70659,0.21303 1.04406,0.55051c0.57371,0.57371 1.17694,1.01875 1.80971,1.33514c0.63698,0.31638 1.43005,0.47457 2.3792,0.47457c0.29529,-0.01687 0.62011,-0.05906 0.97446,-0.12655c0.35857,-0.07171 0.67073,-0.22991 0.93649,-0.47457c0.26998,-0.24889 0.40497,-0.63066 0.40497,-1.14531c0,-0.43872 -0.14975,-0.78674 -0.44926,-1.04406c-0.29529,-0.25732 -0.6855,-0.47457 -1.17062,-0.65175c-0.48512,-0.17717 -1.02508,-0.34591 -1.61988,-0.50621c-0.61167,-0.17717 -1.24022,-0.37333 -1.88564,-0.58847c-0.6412,-0.21936 -1.22968,-0.502 -1.76542,-0.84791c-0.53574,-0.35013 -0.97235,-0.81205 -1.30983,-1.38576c-0.33326,-0.57371 -0.49989,-1.29506 -0.49989,-2.16406c0,-0.99133 0.27631,-1.83291 0.82892,-2.52474c0.55683,-0.69182 1.27397,-1.22546 2.1514,-1.6009c0.88165,-0.37966 1.8076,-0.56949 2.77784,-0.56949c0.61589,0 1.2592,0.07593 1.92994,0.2278c0.67495,0.14765 1.31826,0.38599 1.92994,0.71503c0.61589,0.32482 1.13054,0.75299 1.54395,1.28452c0.21936,0.29951 0.34802,0.65808 0.38599,1.0757c0.04218,0.41341 -0.14554,0.78885 -0.56316,1.12632c-0.29529,0.23623 -0.6412,0.33958 -1.03774,0.31006c-0.39653,-0.02953 -0.72346,-0.16452 -0.98079,-0.40497c-0.33748,-0.4345 -0.78885,-0.78041 -1.35412,-1.03774c-0.56105,-0.25732 -1.20858,-0.38599 -1.94259,-0.38599c-0.29529,0 -0.61589,0.03586 -0.9618,0.10757c-0.34591,0.06749 -0.64753,0.21514 -0.90486,0.44294c-0.25732,0.2278 -0.38599,0.58847 -0.38599,1.08203c0,0.45559 0.14765,0.81838 0.44294,1.08836c0.29529,0.26576 0.69604,0.48301 1.20226,0.65175c0.50621,0.16874 1.04617,0.33115 1.61988,0.48723c0.5948,0.1603 1.19804,0.35013 1.80971,0.56949c0.61589,0.21514 1.18116,0.502 1.69581,0.86056c0.51465,0.35435 0.93017,0.81416 1.24655,1.37943c0.31638,0.56527 0.47457,1.28241 0.47457,2.1514c0,1.00821 -0.2974,1.86877 -0.8922,2.58169c-0.5948,0.71292 -1.33725,1.25288 -2.22734,1.61988c-0.89009,0.367 -1.80127,0.55051 -2.73355,0.55051c-1.16851,0 -2.33702,-0.20249 -3.50552,-0.60746c-1.16429,-0.40497 -2.13242,-1.12421 -2.9044,-2.15773zM244.91167,217.71635c0,0.51465 -0.16874,0.94493 -0.50621,1.29084c-0.33326,0.34591 -0.75721,0.51887 -1.27186,0.51887c-0.51465,0 -0.94071,-0.17296 -1.27819,-0.51887c-0.33748,-0.34591 -0.50621,-0.77619 -0.50621,-1.29084v-12.26301c0,-0.51465 0.16874,-0.94493 0.50621,-1.29084c0.33748,-0.35013 0.76354,-0.5252 1.27819,-0.5252c0.51465,0 0.9386,0.17506 1.27186,0.5252c0.33748,0.34591 0.50621,0.77619 0.50621,1.29084zM243.10196,201.70737c-0.67495,0 -1.15163,-0.10757 -1.43005,-0.32271c-0.2742,-0.21936 -0.4113,-0.60535 -0.4113,-1.15796v-0.56949c0,-0.57371 0.15186,-0.96391 0.45559,-1.17062c0.30795,-0.2067 0.7783,-0.31006 1.41107,-0.31006c0.69604,0 1.18116,0.10968 1.45536,0.32904c0.27842,0.21514 0.41763,0.59902 0.41763,1.15163v0.56949c0,0.57371 -0.14975,0.96391 -0.44926,1.17062c-0.29529,0.2067 -0.7783,0.31006 -1.44903,0.31006zM263.98037,211.5975c0,1.6241 -0.36279,3.05415 -1.08836,4.29015c-0.72135,1.236 -1.6916,2.20203 -2.91072,2.89807c-1.21491,0.69182 -2.57536,1.03774 -4.08134,1.03774c-1.50177,0 -2.86221,-0.34591 -4.08134,-1.03774c-1.21913,-0.69604 -2.18937,-1.66206 -2.91072,-2.89807c-0.72135,-1.236 -1.08203,-2.66606 -1.08203,-4.29015c0,-1.6241 0.36068,-3.05415 1.08203,-4.29015c0.72135,-1.236 1.6916,-2.20624 2.91072,-2.91072c1.21913,-0.70448 2.57958,-1.05672 4.08134,-1.05672c1.50598,0 2.86643,0.35224 4.08134,1.05672c1.21913,0.70448 2.18937,1.67472 2.91072,2.91072c0.72557,1.236 1.08836,2.66606 1.08836,4.29015zM260.4179,211.5975c0,-1.00821 -0.2046,-1.88353 -0.61378,-2.62598c-0.40497,-0.74245 -0.94915,-1.32037 -1.63254,-1.73378c-0.68339,-0.41763 -1.4406,-0.62644 -2.27163,-0.62644c-0.83103,0 -1.58824,0.20881 -2.27163,0.62644c-0.68339,0.41341 -1.22757,0.99133 -1.63254,1.73378c-0.40497,0.74245 -0.60746,1.61777 -0.60746,2.62598c0,0.99133 0.20249,1.85822 0.60746,2.60067c0.40497,0.74245 0.94915,1.32248 1.63254,1.74011c0.68339,0.41341 1.4406,0.62011 2.27163,0.62011c0.83103,0 1.58824,-0.2067 2.27163,-0.62011c0.68339,-0.41763 1.22757,-0.99766 1.63254,-1.74011c0.40919,-0.74245 0.61378,-1.60934 0.61378,-2.60067zM275.58801,203.33991c1.46802,0 2.58169,0.30795 3.34101,0.92384c0.76354,0.61167 1.28873,1.42794 1.57559,2.4488c0.28685,1.02086 0.43028,2.15351 0.43028,3.39795v7.60585c0,0.51465 -0.16874,0.94493 -0.50621,1.29084c-0.33748,0.34591 -0.76354,0.51887 -1.27819,0.51887c-0.51465,0 -0.94071,-0.17296 -1.27819,-0.51887c-0.33326,-0.34591 -0.49989,-0.77619 -0.49989,-1.29084v-7.60585c0,-0.65386 -0.08437,-1.24233 -0.25311,-1.76542c-0.16874,-0.52309 -0.47036,-0.94282 -0.90486,-1.2592c-0.4345,-0.31638 -1.05883,-0.47457 -1.87299,-0.47457c-0.79307,0 -1.46169,0.15819 -2.00587,0.47457c-0.54418,0.31638 -0.95969,0.73612 -1.24655,1.2592c-0.28685,0.52309 -0.43028,1.11156 -0.43028,1.76542v7.60585c0,0.51465 -0.16874,0.94493 -0.50621,1.29084c-0.33326,0.34591 -0.75721,0.51887 -1.27186,0.51887c-0.51465,0 -0.94071,-0.17296 -1.27819,-0.51887c-0.33748,-0.34591 -0.50621,-0.77619 -0.50621,-1.29084v-12.26301c0,-0.51465 0.16874,-0.94493 0.50621,-1.29084c0.33748,-0.35013 0.76354,-0.5252 1.27819,-0.5252c0.51465,0 0.9386,0.17506 1.27186,0.5252c0.33748,0.34591 0.50621,0.77619 0.50621,1.29084v1.27186l-0.44294,-0.08859c0.17717,-0.33748 0.4345,-0.69815 0.77197,-1.08203c0.33748,-0.3881 0.7319,-0.74877 1.18327,-1.08203c0.45559,-0.33748 0.97024,-0.60957 1.54395,-0.81627c0.57793,-0.21092 1.20226,-0.31638 1.87299,-0.31638z" fill="#000000" stroke="none" stroke-width="1" stroke-linecap="square"/></g></g></svg>
